<?xml version="1.0" standalone="no"?>
<!DOCTYPE svg PUBLIC "-//W3C//DTD SVG 20010904//EN"
 "http://www.w3.org/TR/2001/REC-SVG-20010904/DTD/svg10.dtd">
<svg version="1.0" xmlns="http://www.w3.org/2000/svg"
 width="1280.000000pt" height="1280.000000pt" viewBox="0 0 1280.000000 1280.000000"
 preserveAspectRatio="xMidYMid meet">

<g transform="translate(0.000000,1280.000000) scale(0.100000,-0.100000)"
fill="#000000" stroke="none">
<path d="M5050 7545 c-11 -26 -23 -57 -26 -70 -7 -27 -7 -26 103 -45 151 -26
380 -124 503 -216 298 -224 483 -533 531 -889 21 -159 -6 -473 -43 -497 -7 -4
-192 -8 -411 -8 -463 0 -454 2 -500 -92 -24 -47 -100 -239 -153 -385 -10 -29
-23 -53 -29 -54 -11 -2 -35 44 -106 201 -111 250 -124 276 -142 303 -11 16
-18 30 -15 32 2 2 69 7 150 11 l147 7 -4 193 c-2 107 -3 195 -2 196 1 1 108 5
237 8 l235 5 -2 200 c-1 110 -2 208 -2 218 -1 16 -19 17 -231 17 -212 0 -230
1 -231 18 -3 28 -4 105 -7 295 l-2 177 -210 0 c-115 0 -211 -1 -212 -2 -1 -2
-4 -111 -7 -243 l-6 -240 -217 -3 -218 -2 0 -28 c0 -15 -3 -93 -7 -173 -3 -80
-3 -166 1 -192 l7 -47 219 0 219 0 3 -177 c2 -98 2 -185 0 -194 -3 -14 -15
-15 -72 -11 -74 5 -120 -2 -120 -19 0 -19 -123 -279 -132 -279 -5 0 -11 8 -14
18 -3 9 -35 87 -71 172 -37 85 -79 188 -95 228 -36 94 -72 155 -110 187 -29
25 -33 25 -197 25 -93 0 -196 3 -230 6 l-61 7 0 37 c0 58 28 206 56 299 71
235 184 419 365 595 74 72 147 132 200 165 46 28 79 51 73 51 -34 0 -228 -140
-330 -237 -206 -196 -358 -485 -410 -776 -34 -190 -18 -452 40 -642 74 -248
247 -507 441 -664 106 -85 221 -157 331 -205 210 -92 367 -126 590 -126 462 0
880 214 1156 594 201 276 298 594 285 934 -7 182 -33 308 -94 462 -79 201
-178 345 -342 503 -216 207 -475 338 -774 391 -37 7 -38 6 -57 -39z m-1125
-1506 c7 -8 32 -57 53 -109 22 -52 63 -149 91 -215 102 -244 120 -281 153
-317 26 -28 43 -38 66 -38 65 0 78 13 138 132 67 135 140 254 159 262 8 3 30
2 50 -1 27 -4 39 -13 47 -32 45 -111 78 -201 133 -361 35 -102 78 -223 95
-270 45 -119 81 -241 74 -251 -7 -12 -129 -11 -238 1 -169 20 -367 80 -496
152 -200 111 -393 290 -503 464 -97 155 -192 402 -212 552 l-7 53 192 -4 c146
-3 195 -7 205 -18z m792 -166 c30 -34 29 -68 -1 -88 -36 -24 -79 -16 -90 16
-7 20 -3 33 15 62 29 44 46 46 76 10z"/>
<path d="M4680 5856 c0 -8 5 -18 10 -21 20 -13 10 -27 -15 -21 -14 4 -25 2
-25 -4 0 -12 57 -13 64 -1 8 13 -11 61 -24 61 -5 0 -10 -6 -10 -14z"/>
<path d="M9870 5380 l0 -300 78 -2 c151 -4 191 5 239 52 83 81 73 278 -19 355
-38 32 -113 35 -151 5 -14 -11 -28 -20 -31 -20 -3 0 -6 47 -6 105 l0 105 -55
0 -55 0 0 -300z m231 1 c25 -25 29 -37 29 -84 0 -67 -31 -111 -87 -126 -55
-16 -63 -3 -63 98 1 88 7 107 45 129 31 18 44 14 76 -17z"/>
<path d="M8868 5388 c-3 -144 -3 -269 -1 -279 6 -20 35 -27 78 -19 l30 5 3
111 3 111 46 7 c25 3 79 6 119 6 85 0 79 10 74 -127 -3 -106 1 -113 66 -113
l54 0 0 280 0 280 -60 0 -60 0 0 -115 0 -115 -114 0 c-95 0 -115 3 -120 16 -3
9 -6 60 -6 115 l0 99 -54 0 -53 0 -5 -262z"/>
<path d="M6518 5634 c-5 -4 -8 -128 -8 -275 l0 -267 103 -7 c152 -10 237 15
313 92 52 53 64 89 64 185 0 96 -18 144 -71 197 -60 59 -107 73 -259 79 -74 2
-138 1 -142 -4z m269 -114 c61 -26 86 -81 81 -171 -6 -111 -56 -161 -167 -167
l-68 -4 -6 38 c-4 22 -7 103 -7 181 l0 142 28 3 c41 6 92 -2 139 -22z"/>
<path d="M7870 5558 c0 -49 -8 -64 -33 -69 -10 -2 -18 -7 -18 -11 1 -5 1 -20
1 -34 0 -17 6 -28 19 -31 17 -4 19 -17 23 -144 3 -136 4 -139 30 -166 23 -23
36 -27 82 -27 65 0 88 16 84 58 -3 28 -6 31 -36 28 -43 -3 -52 21 -52 149 l0
99 35 0 c34 0 35 1 35 39 0 39 -1 40 -37 43 -37 3 -38 4 -41 48 -4 50 -13 60
-59 60 -32 0 -33 -1 -33 -42z"/>
<path d="M8744 5513 c-18 -2 -44 -17 -60 -34 -34 -36 -44 -37 -44 -3 0 23 -3
25 -42 22 l-43 -3 -3 -202 -2 -203 54 0 54 0 4 123 c3 108 6 126 26 154 19 27
31 33 77 38 52 7 55 9 55 36 0 38 -17 79 -32 77 -7 0 -27 -3 -44 -5z"/>
<path d="M7175 5497 c-93 -37 -130 -95 -130 -207 0 -85 22 -139 75 -183 33
-28 101 -43 148 -32 51 11 112 62 134 112 25 56 27 152 5 203 -40 93 -144 141
-232 107z m86 -87 c29 -16 49 -64 49 -117 0 -99 -80 -159 -129 -97 -42 53 -35
151 14 200 27 27 37 29 66 14z"/>
<path d="M7585 5491 c-79 -36 -115 -101 -115 -206 0 -80 16 -120 63 -162 63
-55 137 -66 207 -30 37 18 46 28 48 53 4 43 -17 59 -54 39 -37 -19 -58 -19
-94 0 -109 56 -48 268 64 225 46 -17 73 -13 78 13 7 39 -2 55 -43 71 -52 21
-105 20 -154 -3z"/>
<path d="M8228 5496 c-92 -33 -129 -88 -135 -201 -4 -59 -1 -77 19 -114 13
-24 43 -58 66 -75 39 -27 52 -31 112 -31 79 0 107 15 153 83 34 50 44 117 27
195 -14 68 -48 112 -105 138 -47 22 -86 23 -137 5z m87 -82 c47 -19 66 -161
27 -213 -15 -20 -28 -26 -57 -26 -53 0 -80 37 -79 108 2 94 50 153 109 131z"/>
<path d="M9478 5502 l-46 -3 -7 -106 c-11 -150 -2 -236 27 -273 40 -50 115
-64 184 -35 25 10 41 12 54 5 24 -13 87 -13 95 -1 3 6 2 102 -1 215 l-7 206
-54 0 -53 0 0 -145 c0 -142 -1 -147 -25 -170 -25 -26 -59 -32 -85 -15 -12 7
-16 40 -18 162 -2 84 -6 155 -10 158 -4 3 -28 4 -54 2z"/>
<path d="M10291 5166 c-18 -22 -10 -56 20 -79 22 -15 30 -17 48 -8 25 14 38
58 24 80 -14 22 -76 26 -92 7z m75 -17 c8 -14 -31 -53 -45 -45 -17 11 -13 29
5 22 12 -4 14 -1 9 14 -7 22 18 29 31 9z"/>
</g>
</svg>
